
<svg width="13px" height="13px" viewBox="0 0 13 13" version="1.1" xmlns="http://www.w3.org/2000/svg" xmlns:xlink="http://www.w3.org/1999/xlink">
    <!-- Generator: Sketch 51.3 (57544) - http://www.bohemiancoding.com/sketch -->
    <desc>Created with Sketch.</desc>
    <defs></defs>
    <g id="Page-1" stroke="none" stroke-width="1" fill="none" fill-rule="evenodd">
        <g id="Fundos" transform="translate(-287.000000, -950.000000)" fill="#DA0101">
            <g id="Mais-informações" transform="translate(29.000000, 463.000000)">
                <g id="Seta-baixar" transform="translate(258.000000, 487.000000)">
                    <path d="M6.48395062,0.078313253 C6.08271605,0.078313253 5.7617284,0.391566265 5.7617284,0.78313253 L5.7617284,8.17590361 L2.85679012,5.34096386 C2.56790123,5.05903614 2.11851852,5.05903614 1.82962963,5.34096386 C1.54074074,5.62289157 1.54074074,6.06144578 1.82962963,6.34337349 L6.48395062,10.8855422 L11.0580247,6.34337349 C11.3308642,6.06144578 11.3308642,5.62289157 11.0419753,5.34096386 C10.7530864,5.0746988 10.3037037,5.0746988 10.0148148,5.35662651 L7.19012346,8.17590361 L7.19012346,0.78313253 C7.20617284,0.391566265 6.88518519,0.078313253 6.48395062,0.078313253 L6.48395062,0.078313253 Z" id="Shape"></path>
                    <path d="M0.0160493827,12.2951807 C0.0160493827,12.686747 0.337037037,13 0.738271605,13 L12.1654321,13 C12.5666667,13 12.8876543,12.686747 12.8876543,12.2951807 C12.8876543,11.9036145 12.5666667,11.5903614 12.1654321,11.5903614 L0.738271605,11.5903614 C0.337037037,11.5903614 0.0160493827,11.9036145 0.0160493827,12.2951807 L0.0160493827,12.2951807 Z" id="Shape"></path>
                </g>
            </g>
        </g>
    </g>
</svg>