
<svg width="14px" height="8px" viewBox="0 0 14 8" version="1.1" xmlns="http://www.w3.org/2000/svg" xmlns:xlink="http://www.w3.org/1999/xlink">
    <!-- Generator: Sketch 51.3 (57544) - http://www.bohemiancoding.com/sketch -->
    <desc>Created with Sketch.</desc>
    <defs></defs>
    <g id="Page-1" stroke="none" stroke-width="1" fill="none" fill-rule="evenodd">
        <g id="Fundos" transform="translate(-241.000000, -392.000000)" fill="#7D7A77">
            <g id="Group-Copy-10" transform="translate(248.000000, 396.500000) scale(-1, 1) rotate(-270.000000) translate(-248.000000, -396.500000) translate(244.000000, 390.000000)">
                <g id="Group">
                    <path d="M1.106,0.11 L6.95933333,6.19566667 C7.02933333,6.269 7.06433333,6.35211111 7.06433333,6.44622222 C7.06433333,6.54155556 7.02933333,6.62466667 6.95933333,6.698 L1.106,12.7836667 C1.036,12.8557778 0.9555,12.8924444 0.865666667,12.8924444 C0.775833333,12.8924444 0.695333333,12.8557778 0.6265,12.7836667 L0.105,12.2373333 C0.035,12.164 0,12.0808889 0,11.9855556 C0,11.8914444 0.035,11.8083333 0.105,11.735 L5.19883333,6.44622222 L0.105,1.15744444 C0.035,1.08411111 0.00116666667,1.001 0.00116666667,0.905666667 C0.00116666667,0.811555556 0.035,0.728444444 0.105,0.655111111 L0.6265,0.11 C0.695333333,0.0366666667 0.775833333,0 0.865666667,0 C0.9555,0.00122222222 1.036,0.0378888889 1.106,0.11 Z" id="Shape"></path>
                </g>
            </g>
        </g>
    </g>
</svg>