
<svg width="19px" height="24px" viewBox="0 0 19 24" version="1.1" xmlns="http://www.w3.org/2000/svg" xmlns:xlink="http://www.w3.org/1999/xlink">
    <!-- Generator: Sketch 51.3 (57544) - http://www.bohemiancoding.com/sketch -->
    <desc>Created with Sketch.</desc>
    <defs></defs>
    <g id="Page-1" stroke="none" stroke-width="1" fill="none" fill-rule="evenodd">
        <g id="Fundos" transform="translate(-326.000000, -42.000000)" fill="#DA0101">
            <g id="Header" transform="translate(81.000000, 42.000000)">
                <g id="Compartilhar" transform="translate(245.000000, 0.000000)">
                    <path d="M5.48548387,4.83538084 C5.08709677,4.48157248 5.08709677,3.83292383 5.48548387,3.47911548 L8.82580645,0.265356265 C9.19354839,-0.0884520885 9.80645161,-0.0884520885 10.1741935,0.265356265 L13.5145161,3.47911548 C13.9129032,3.86240786 13.9129032,4.48157248 13.5145161,4.83538084 C13.3306452,4.98280098 13.116129,5.07125307 12.8709677,5.07125307 C12.6258065,5.07125307 12.35,4.98280098 12.166129,4.80589681 L10.4193548,3.0958231 L10.4193548,14.6830467 C10.4193548,15.1842752 10.0209677,15.5970516 9.5,15.5970516 C8.97903226,15.5970516 8.58064516,15.1842752 8.58064516,14.6830467 L8.58064516,3.0958231 L6.80322581,4.77641278 C6.61935484,4.95331695 6.37419355,5.04176904 6.12903226,5.04176904 C5.88387097,5.07125307 5.63870968,4.98280098 5.48548387,4.83538084 L5.48548387,4.83538084 Z M17.1612903,6.04422604 L14.0967742,6.04422604 C13.6064516,6.04422604 13.1467742,6.36855037 13.116129,6.84029484 C13.0548387,7.4004914 13.483871,7.81326781 14.0354839,7.81326781 L16.6709677,7.81326781 C16.9467742,7.81326781 17.1612903,7.99017199 17.1612903,8.25552826 L17.1612903,21.6117936 C17.1612903,21.8771499 16.9467742,21.965602 16.6709677,21.965602 L2.32903226,21.965602 C2.05322581,21.965602 1.83870968,21.8771499 1.83870968,21.6117936 L1.83870968,8.25552826 C1.83870968,7.99017199 2.05322581,7.81326781 2.32903226,7.81326781 L4.90322581,7.81326781 C5.39354839,7.81326781 5.85322581,7.48894349 5.88387097,7.01719902 C5.94516129,6.45700246 5.48548387,6.04422604 4.93387097,6.04422604 L1.83870968,6.04422604 C0.766129032,6.04422604 0,6.78132678 0,7.78378378 L0,22.0540541 C0,23.0859951 0.766129032,24 1.83870968,24 L17.1612903,24 C18.233871,24 19,23.0565111 19,22.0540541 L19,7.78378378 C19,6.78132678 18.233871,6.04422604 17.1612903,6.04422604 L17.1612903,6.04422604 Z" id="share"></path>
                </g>
            </g>
        </g>
    </g>
</svg>